<svg width="18" height="18" viewBox="0 0 18 18" fill="none" xmlns="http://www.w3.org/2000/svg">
<path fill-rule="evenodd" clip-rule="evenodd" d="M11.1926 12.6067C8.45075 14.6623 4.54386 14.4434 2.05025 11.9497C-0.683417 9.21608 -0.683417 4.78392 2.05025 2.05025C4.78392 -0.683417 9.21608 -0.683417 11.9497 2.05025C14.4433 4.54383 14.6623 8.45063 12.6068 11.1925L16.753 15.3387C17.1436 15.7293 17.1436 16.3624 16.753 16.7529C16.3625 17.1435 15.7294 17.1435 15.3388 16.7529L11.1926 12.6067ZM4.49999 11.3298C2.10853 9.94912 1.28915 6.89116 2.66986 4.4997C4.05057 2.10824 7.10853 1.28886 9.49999 2.66957C11.8915 4.05029 12.7108 7.10824 11.3301 9.4997C9.9494 11.8912 6.89145 12.7105 4.49999 11.3298Z" fill="#0064E1"/>
</svg>
